# xmcd
#
# Track frame offsets: 
#        150
#        12565
#        26713
#        36925
#        46228
#        60028
#        72978
#        82903
#        98048
#        117553
#        128390
#        141695
#
# Disc length: 2032 seconds
#
# Revision: 3
# Processed by: cddbd v1.5.2PL0 Copyright (c) Steve Scherf et al.
# Submitted via: ExactAudioCopyFreeDBPlugin 1.0
#
DISCID=9e07ee0c
DTITLE=Roy Clark - The Best Of Roy Clark
DYEAR=1990
DGENRE=Country
TTITLE0=The Tips Of My Fingers
TTITLE1=Faded Love
TTITLE2=Sally Was A Good Old Girl
TTITLE3=Silver Threads And Golden Needles
TTITLE4=When The Wind Blows In Chicago
TTITLE5=Through The Eyes Of A Fool
TTITLE6=Take Me As I Am (Or Let Me Go)
TTITLE7=He'll Have To Go
TTITLE8=Malaguena
TTITLE9=Happy To Be Unhappy
TTITLE10=You Took Her Off My Hands (Now Take Her Off My Mind)
TTITLE11=Just A Closer Walk With Thee
EXTD=
EXTT0=Yesterday: 02.01.1998
EXTT1=Yesterday: 20.02.1998
EXTT2=
EXTT3=
EXTT4=
EXTT5=
EXTT6=
EXTT7=
EXTT8=
EXTT9=
EXTT10=
EXTT11=Yesterday: 06.03.1998
PLAYORDER=
